<?xml version="1.0" standalone="no"?>
<!DOCTYPE svg PUBLIC "-//W3C//DTD SVG 1.1//EN" "http://www.w3.org/Graphics/SVG/1.1/DTD/svg11.dtd" >
<!--
2013-9-30: Created.
-->
<svg>
<metadata>
Created by iconfont
</metadata>
<defs>

<font id="icon" horiz-adv-x="1024" >
  <font-face
    font-family="icon"
    font-weight="500"
    font-stretch="normal"
    units-per-em="1024"
    ascent="896"
    descent="-128"
  />
    <missing-glyph />
    
    <glyph glyph-name="x" unicode="x" horiz-adv-x="1001"
d="M281 543q-27 -1 -53 -1h-83q-18 0 -36.5 -6t-32.5 -18.5t-23 -32t-9 -45.5v-76h912v41q0 16 -0.5 30t-0.5 18q0 13 -5 29t-17 29.5t-31.5 22.5t-49.5 9h-133v-97h-438v97zM955 310v-52q0 -23 0.5 -52t0.5 -58t-10.5 -47.5t-26 -30t-33 -16t-31.5 -4.5q-14 -1 -29.5 -0.5
t-29.5 0.5h-32l-45 128h-439l-44 -128h-29h-34q-20 0 -45 1q-25 0 -41 9.5t-25.5 23t-13.5 29.5t-4 30v167h911zM163 247q-12 0 -21 -8.5t-9 -21.5t9 -21.5t21 -8.5q13 0 22 8.5t9 21.5t-9 21.5t-22 8.5zM316 123q-8 -26 -14 -48q-5 -19 -10.5 -37t-7.5 -25t-3 -15t1 -14.5
t9.5 -10.5t21.5 -4h37h67h81h80h64h36q23 0 34 12t2 38q-5 13 -9.5 30.5t-9.5 34.5q-5 19 -11 39h-368zM336 498v228q0 11 2.5 23t10 21.5t20.5 15.5t34 6h188q31 0 51.5 -14.5t20.5 -52.5v-227h-327z" />
    

    
    <glyph glyph-name="location" unicode="&#58905;" d="M679.7789958007813 497.16037763671875c0-92.38536298828126-74.8931220703125-167.27758593750002-167.27668681640628-167.27758593750002-92.38626210937501 0-167.27848505859376 74.8931220703125-167.27848505859376 167.27758593750002s74.8931220703125 167.27758593750002 167.27848505859376 167.27758593750002C604.8849737304688 664.4379626953125 679.7789958007813 589.5457397460938 679.7789958007813 497.16037763671875zM512.5005107421875 621.2951135742187c-68.55871728515626 0-124.13473681640625-55.57691865234375-124.13473681640625-124.13473681640625s55.57601953125-124.13473681640625 124.13473681640625-124.13473681640625c68.5578181640625 0 124.13383769531248 55.57691865234375 124.13383769531248 124.13473681640625S581.0583280273438 621.2951135742187 512.5005107421875 621.2951135742187zM861.1140508789063 485.356780078125c0-192.53336220703125-349.6199581054688-551.3567800781251-349.6199581054688-551.3567800781251S163.88786972656249 292.82341787109374 163.88786972656249 485.356780078125c0 192.53426220703125 156.0792779296875 348.61354013671877 348.61354013671877 348.61354013671877C705.0347720703126 833.9703202148437 861.1140508789063 677.8910422851562 861.1140508789063 485.356780078125zM512.5005107421875 788.8694982421875c-168.69232617187498 0-305.44460859375005-136.75228154296875-305.44460859375005-305.44460859375005 0-168.69142705078127 305.11902919921874-483.08227031249993 305.11902919921874-483.08227031249993s305.76928798828123 314.39084326171877 305.76928798828123 483.08227031249993C817.9451193359375 652.1172166992187 681.1928369140625 788.8694982421875 512.5005107421875 788.8694982421875z"  horiz-adv-x="1024" />

    
    <glyph glyph-name="package" unicode="&#58908;" d="M977.148822 634.868701L174.370957 634.868701c-55.420292 0-100.347763-44.92747-100.347763-100.347763l0-551.910577c0-55.420292 44.92747-100.347763 100.347763-100.347763l802.777865 0c55.420292 0 100.347763 44.92747 100.347763 100.347763L1077.496585 534.520938C1077.495172 589.94123 1032.569114 634.868701 977.148822 634.868701zM1027.321997 7.697655000000054c0-41.564513-33.694543-75.260469-75.260469-75.260469l-752.60469 0c-41.564513 0-75.260469 33.695956-75.260469 75.260469L124.19637 509.433644c0 41.564513 33.695956 75.260469 75.260469 75.260469l752.60469 0c41.564513 0 75.260469-33.695956 75.260469-75.260469L1027.321997 7.697655000000054zM901.888353 308.73953100000006l150.520938 0 0 50.173175L876.801059 358.91270599999996c-27.710146 0-50.173175-22.463029-50.173175-50.173175l0-100.347763c0-27.710146 22.463029-50.173175 50.173175-50.173175l175.608232 0 0 50.173175-150.520938 0c-13.855779 0-25.087294 11.231514-25.087294 25.087294l0 50.173175C876.801059 297.508017 888.032574 308.73953100000006 901.888353 308.73953100000006zM926.306163 875.710676L926.974234 634.868701 977.148822 634.868701 977.148822 891.526886ZM943.339873 881.065137L151.176298 632.0989569999999 80.345159 557.243851 958.383492 833.199846Z"  horiz-adv-x="1174" />

    
    <glyph glyph-name="star" unicode="&#58897;" d="M327.728136 91.69872399999997l150.60509 60.966537 33.721009 13.627369 33.721009-13.627369 150.609183-60.914348-4.484128 166.562527-0.907673 32.985252 20.663622 25.711592 96.563266 120.353089L652.842749 484.425224l-30.030967 9.081843-17.825994 25.716708-92.931552 134.033669-92.871177-134.033669-17.825994-25.716708-30.033014-9.081843-155.490354-47.120181 96.566336-120.29476 20.663622-25.711592-0.907673-32.985252L327.728136 91.69872399999997M789.940197-43.129031000000055L512.054235 69.27296899999999 234.17339-43.129031000000055l8.115841 303.886125L62.389956 484.824313l282.879696 85.667102L512.054235 811.130054l166.843936-240.638639 282.711873-85.667102L781.766027 260.756071 789.940197-43.129031000000055 789.940197-43.129031000000055 789.940197-43.129031000000055z"  horiz-adv-x="1024" />

    
    <glyph glyph-name="phone" unicode="&#58903;" d="M993.540013 129.915118l-3.938871 5.732561c2.110146-1.984191-10.438161 12.618389-10.438161 12.618389s-11.779772 13.775748-42.675706 39.318494c-25.398503 20.996197-57.116186 45.144176-81.849512 61.45977-30.043484 19.819394-50.961764 32.584116-49.647784 31.731702l-22.065454 11.037381c-9.674743 4.786003-25.829333 5.307889-37.235582 1.379417-10.307173-3.549849-19.37814-11.622712-23.588198-18.97005 1.804165 3.320629-7.154234-6.52767-25.372919-39.003316-7.808154-14.175861-16.967129-34.189683-27.992693-53.848419-14.960341-26.675546-53.757554-53.070706-92.417638-31.18628-49.066522 27.77253-112.131436 66.098417-176.87669 127.601166C324.39247 348.988602 283.36845 403.596314 260.06679 455.541383c-8.482541 18.910699-4.627585 58.512648 26.371708 73.620741 30.620653 14.923898 48.238632 18.689664 67.581978 30.30112 17.512574 10.921747 14.050584 7.27673 34.477656 20.694321 0.824819 0.600681 7.362997 6.291287 8.274801 6.898107 0 0 1.522744 1.542122 2.757926 2.758834 12.828705 12.163017 16.071698 28.288277 9.653253 44.148499l-2.757926 8.277524c0 0-14.735204 33.45188-37.235582 71.741951-11.924064 20.290115-29.265739 45.538149-42.752457 63.463404-36.500817 48.518017-68.955312 63.463404-68.955312 63.463404s-9.095527 4.792143-13.791676 6.898107c-18.499083 7.798617-34.913603 5.51255-51.027259-1.379417-34.902346-12.894681-54.780903-30.523177-81.75741-52.699246C51.94418 745.258811 10.622364 677.9201459999999 18.871582 619.1332520000001c12.852242-91.943039 128.256349-294.433846 279.149181-437.648618 150.93786-143.236262 364.322531-252.835426 461.043352-264.931928 64.999045-8.280594 120.058299 24.922622 174.867856 75.433016 19.298318 17.785062 44.513641 46.931892 57.481522 74.673723C998.705879 82.257701 1005.825319 112.46262999999999 993.540013 129.915118z"  horiz-adv-x="1024" />

    
    <glyph glyph-name="score" unicode="&#58916;" d="M509.092 394.346c241.775 0 424.086 78.086 424.086 181.641 0 103.543-182.311 181.629-424.087 181.629-241.774 0-424.098-78.087-424.098-181.63C84.993 472.431 267.317 394.346 509.092 394.346zM509.092 711.78c222.908 0 378.251-71.563 378.251-135.794 0-64.232-155.342-135.805-378.251-135.805-222.92 0-378.264 71.573-378.264 135.805C130.828 640.216 286.172 711.78 509.092 711.78zM509.083 201.938c241.115 0 422.938 77.599 422.938 180.483 0 27.169-13.128 52.453-36.241 75.131-0.148 0.153-0.266 0.32-0.419 0.469-0.171 0.167-0.285 0.346-0.456 0.511l-0.114-0.126c-3.718 3.407-8.577 5.608-14.018 5.608-11.543 0-20.899-9.355-20.899-20.898 0-6.11 2.723-11.481 6.901-15.303l-0.083-0.091c13.949-14.024 21.811-31.155 21.811-45.301 0-64.786-155.814-136.967-379.42-136.967-223.596 0-379.41 72.181-379.41 136.967 0 16.14 4.537 29.952 22.323 45.67 0.214 0.204 0.43 0.382 0.636 0.595 0.137 0.118 0.24 0.233 0.379 0.354l-0.085 0.081c3.417 3.72 5.623 8.589 5.623 14.038 0 11.543-9.356 20.898-20.899 20.898-5.771 0-10.993-2.34-14.773-6.119l-0.123 0.119c-23.407-22.798-36.594-48.278-36.594-75.636C86.158 279.53700000000003 267.98 201.938 509.083 201.938zM895.576 266.47c-0.168 0.165-0.282 0.343-0.453 0.508l-0.114-0.125c-3.718 3.407-8.577 5.608-14.019 5.608-11.541 0-20.897-9.355-20.897-20.898 0-6.11 2.721-11.482 6.901-15.303l-0.084-0.091c13.949-14.024 21.811-31.155 21.811-45.301 0-64.788-155.813-136.967-379.42-136.967-223.595 0-379.41 72.18-379.41 136.967 0 16.14 4.538 29.952 22.322 45.67 0.214 0.202 0.43 0.382 0.635 0.595 0.138 0.118 0.241 0.233 0.379 0.354l-0.085 0.081c3.417 3.72 5.623 8.589 5.623 14.038 0 11.543-9.356 20.898-20.897 20.898-5.771 0-10.994-2.34-14.773-6.119l-0.123 0.119c-23.41-22.798-36.595-48.279-36.595-75.636 0-102.885 181.821-180.482 422.926-180.482 241.115 0 422.936 77.598 422.936 180.482 0 27.166-13.126 52.452-36.235 75.127C895.851 266.153 895.731 266.31899999999996 895.576 266.47z"  horiz-adv-x="1024" />

    
    <glyph glyph-name="close" unicode="&#58900;" d="M512 828.1063765333333c-245.25409507555554 0-444.10637653333333-198.85228032-444.10637653333333-444.10637653333333S266.7470688711111-60.105211448888895 512-60.105211448888895c245.32628138666666 0 444.10521144888884 198.85111637333333 444.10521144888884 444.10521144888884S757.3262813866666 828.1063765333333 512 828.1063765333333zM725.89846528 221.56803299555554c14.994956515555556-15.071799751111111 14.994956515555556-39.490559999999995 0-54.60194531555556-7.612161137777777-7.498060231111111-17.48305464888889-11.306468693333333-27.358605084444445-11.306468693333333-9.875550435555557 0-19.669600711111112 3.8084095999999996-27.281761848888888 11.306468693333333L513.7918498133333 324.4428151466667 356.32560128000006 166.96608767999987c-7.61099719111111-7.498060231111111-17.486547626666667-11.306468693333333-27.357441137777776-11.306468693333333-9.875550435555557 0-19.669600711111112 3.8084095999999996-27.28758272 11.306468693333333-14.996120462222223 15.11022136888889-14.996120462222223 39.53014556444444 0 54.60194531555556l157.48720640000002 157.5046701511111L301.6863994311111 536.5762093511112c-15.001941333333333 15.071799751111111-15.001941333333333 39.49172394666666 0 54.60194531555556 15.071799751111111 15.039199004444443 39.490559999999995 15.039199004444443 54.63920298666666 0l157.46741247999998-157.48254833777776 167.32084224 167.33714204444445c15.072963697777777 15.039199004444443 39.49172394666666 15.039199004444443 54.64036693333333 0 15.000777386666666-15.109057422222222 15.000777386666666-39.53014556444444 0-54.60194531555556L568.4100949333334 379.0715392000001 725.89846528 221.56803299555554z"  horiz-adv-x="1024" />

    
    <glyph glyph-name="about" unicode="&#58885;" d="M512-47.25000029C750.17279727-47.25000029 943.25000029 145.82720272999995 943.25000029 384 943.25000029 622.17279727 750.17279727 815.25000029 512 815.25000029 273.82720273 815.25000029 80.74999971 622.17279727 80.74999971 384 80.74999971 145.82720272999995 273.82720273-47.25000029 512-47.25000029ZM486.63235214 586.87843506C486.63235214 600.9232497099999 497.89215898 612.30882363 512 612.30882363 526.01016465 612.30882363 537.36764786 601.11362432 537.36764786 586.87843506L537.36764786 333.32744854C537.36764786 319.28263125 526.10784102 307.89705907999996 512 307.89705907999996 497.98983535 307.89705907999996 486.63235214 319.09225663999996 486.63235214 333.32744854L486.63235214 586.87843506ZM486.63235214 231.81819931999996C486.63235214 245.81506522999996 497.89215898 257.16176425000003 512 257.16176425000003 526.01016465 257.16176425000003 537.36764786 245.91493710999998 537.36764786 231.81819931999996L537.36764786 181.03474130999996C537.36764786 167.03787714999999 526.10784102 155.69117637 512 155.69117637 497.98983535 155.69117637 486.63235214 166.93800352000005 486.63235214 181.03474130999996L486.63235214 231.81819931999996Z"  horiz-adv-x="1024" />

    
    <glyph glyph-name="member" unicode="&#58987;" d="M458.461667 669.0808509999999c-48.389592 32.646865-50.79596 99.153574-16.702875 135.423983 33.931195 36.104521 98.801413 36.313979 132.969647 0.667747 34.551574-36.045161 32.718017-102.844272-16.050718-136.099724 61.883843-68.123212 119.603309-136.171276 181.633253-204.456379 2.370793 1.505579 4.51254 2.813492 6.602923 4.196555 57.31594 37.882716 114.647669 75.741647 171.908246 113.707306 8.211033 5.445108 18.685331 9.790162 35.577878 8.95353 19.20378-3.324746 21.108888-30.081005 18.773671-44.665917-13.988116-87.291616-28.047584-174.575438-42.015913-261.871251-12.84629-80.281769-25.60544-160.579527-38.416154-240.865093-1.43043-8.965921-2.991372-17.908058-4.421802-26.869982-2.781914-17.469356-13.45068-26.589372-31.260006-26.601164-28.450511-0.015989-65.083473-0.003997-93.534184-0.003997-197.956186 0-395.912571 0-593.868957 0-19.97066 0-29.963884 8.914556-33.065781 28.711334-7.096788 45.228335-14.339878 98.623533-21.693492 143.812495-3.307358 20.334213 8.886775 35.468352 29.596534 35.966215 9.278109 0.225247 18.568011 0.075149 27.853915 0.071152 186.694621-0.05936 200.450095-0.114522 387.144716-0.248831 4.496751-0.003997 9.175179-0.284607 13.454678-1.521369 12.672208-3.663116 25.42716-21.037137 23.941368-33.654182-1.675464-14.229352-16.038526-29.137645-29.880341-29.844965-13.201849-0.675742-26.459061-0.256826-39.692488-0.248831-172.469466 0.090938-161.766522 0.197466-334.235788 0.296399-1.940085 0-3.876372 0-6.670078 0 4.623265-28.964162 9.147598-49.12949 13.770863-78.109442 2.438147 0 4.548116 0 6.654288 0 208.032554 0 405.832046 0.015789 613.8644-0.090938 4.682425-0.003997 6.685867 0.782469 7.519702 6.097066 13.585189 86.355251 27.450788 164.48428 41.288806 250.800157 9.278109 57.869165 18.607384 105.50127 27.901283 163.366438 0.217253 1.343489 0.252829 3.738066 0.497862 6.468414-2.671189-1.675464-4.548116-3.821009-6.373679-5.026192-45.29549-29.932306-90.583384-59.876404-135.874877-89.812707-17.627449-11.652899-30.299857-10.040592-44.370917 5.453103-66.265872 72.975523-132.563522 145.927461-198.837388 218.894989-1.181399 1.300119-2.236484 2.722554-3.666914 4.476965-10.356778-11.368292-20.184115-22.1242-29.979674-32.907689-56.845659-62.587166-113.683523-125.178329-170.525184-187.769292-0.92857-1.023506-1.865135-2.043015-2.801501-3.058326-13.762869-14.944468-26.664521-16.580359-43.46613-5.476687-45.61967 30.16155-84.064204 60.330896-129.679877 90.496244-1.782192 1.177602-3.595762 1.284329-6.302527 3.019153 2.71456-16.975491 5.255437-28.782885 7.796314-44.683704 7.946412-49.689511 15.983563-92.204285 23.787872-141.91758 2.366995-15.066785-12.909048-33.239264-28.639782-35.787936-14.671852-2.378787-40.572292 12.276676-43.124961 27.620273-5.283018 31.730287-10.281629 63.503944-15.375176 95.26581-8.562794 53.388203-17.196741 106.764414-25.526493 160.188192-0.952354 6.101063-1.473801 23.063563 0.090938 28.888014 5.034187 18.76148 34.791611 26.119091 51.621001 15.17751 22.179562-14.418824 44.169453-29.13025 66.23829-43.718959 37.712831-24.929698 67.239012-49.863393 105.627385-75.243785C330.446661 534.7309399999999 396.479091 600.862903 458.461667 669.0808509999999zM508.794941 709.386124c15.742527 0.086941 32.760988 17.310863 32.488373 32.942865-0.268618 15.489698-17.184349 32.231547-32.650463 32.263126-15.837462 0.031579-32.682042-16.852574-32.626679-32.721615C476.061534 725.914718 492.811178 709.299183 508.794941 709.386124z"  horiz-adv-x="1024" />

    
    <glyph glyph-name="delete" unicode="&#58904;" d="M909.050991 726.523097l-217.554898 0 0 31.346939c0 39.5866-32.205493 71.792093-71.793116 71.792093L408.15591 829.662129c-39.5866 0-71.792093-32.205493-71.792093-71.792093l0-31.346939L113.349581 726.523097c-11.013845 0-19.942191-8.940626-19.942191-19.954471s8.928347-19.954471 19.942191-19.954471l84.264149 0 0-640.687918c0-60.479443 49.203632-109.683075 109.683075-109.683075l416.474366 0c60.479443 0 109.683075 49.203632 109.683075 109.683075L833.454246 686.614156l75.595722 0c11.012821 0 19.942191 8.940626 19.942191 19.954471S920.063813 726.523097 909.050991 726.523097zM376.2482 757.869013c0 17.593703 14.314007 31.907711 31.907711 31.907711l211.547067 0c17.593703 0 31.907711-14.314007 31.907711-31.907711l0-31.346939L376.2482 726.522074 376.2482 757.869013zM793.569864 45.92521499999998c0-38.486546-31.312146-69.798692-69.798692-69.798692L307.297828-23.873477999999977c-38.486546 0-69.798692 31.312146-69.798692 69.798692L237.499136 684.9574230000001l556.070728 0L793.569864 45.92521499999998zM510.662539 34.72308199999998c11.012821 0 19.954471 8.92937 19.954471 19.942191L530.61701 601.0872469999999c0 11.013845-8.94165 19.942191-19.954471 19.942191s-19.954471-8.928347-19.954471-19.942191L490.708068 54.66527299999996C490.708068 43.65245200000004 499.649717 34.72308199999998 510.662539 34.72308199999998zM374.562814 94.55067899999995c11.012821 0 19.954471 8.92937 19.954471 19.942191L394.517285 541.25965c0 11.013845-8.94165 19.942191-19.954471 19.942191s-19.954471-8.928347-19.954471-19.942191l0-426.76678C354.608344 103.48004900000001 363.549993 94.55067899999995 374.562814 94.55067899999995zM649.832182 94.55067899999995c11.012821 0 19.954471 8.92937 19.954471 19.942191L669.786653 541.25965c0 11.013845-8.94165 19.942191-19.954471 19.942191s-19.954471-8.928347-19.954471-19.942191l0-426.76678C629.877711 103.48004900000001 638.81936 94.55067899999995 649.832182 94.55067899999995z"  horiz-adv-x="1024" />

    
    <glyph glyph-name="shop" unicode="&#58894;" d="M1008.743528 513.198547L886.682541 794.353972c-2.976798 10.620895-12.878309 18.446118-24.613584 18.446118L160.51581 812.80009c-11.744485 0-21.672602-7.837502-24.63712-18.47477L14.615882 513.144312c-1.425466-3.318582-1.793856-14.383592-1.793856-14.383592 0-103.59645 85.753059-187.866738 191.173041-187.866738 61.48433 0 118.416993 29.072129 153.982 76.491115 35.574217-47.418986 92.504834-76.491115 153.99121-76.491115 61.750389 0 118.780267 29.235858 154.323784 76.939323 35.455513-47.378054 92.231611-76.407204 153.637146-76.407204 105.111966 0 190.629665 84.043115 190.629665 187.334619C1010.558873 498.759697 1010.190483 509.846196 1008.743528 513.198547zM819.934325 355.99313299999994c-57.512878 0-109.696378 33.402761-132.947941 85.107353-3.629667 8.074909-11.754718 13.274328-20.736277 13.274328l-0.01228 0c-8.991792-0.002047-17.117866-5.216815-20.736277-13.308097-23.306822-52.003398-75.716472-85.60775-133.533272-85.60775-57.545624 0-109.860107 33.381271-133.264143 85.035722-3.641947 8.039093-11.761881 13.222139-20.714787 13.222139-8.961092 0-17.072841-5.183046-20.716834-13.214976-23.418362-51.661613-75.734892-85.042885-133.276423-85.042885-80.408331 0-145.821133 64.280002-145.821133 143.30073l115.716488 269.474384 674.826436 0 116.495224-268.485871C965.212082 419.537378 900.03771 355.99313299999994 819.934325 355.99313299999994zM909.935128 245.97645999999997c-12.519128 0-22.672372-9.979282-22.672372-22.280446l0-221.535559L136.12326 2.1604549999999563 136.12326 222.99709600000006c0 12.305257-10.153244 22.280446-22.677489 22.280446-12.521175 0-22.674419-9.975189-22.674419-22.280446l0-240.316298c0-13.833053 11.44568-25.086351 25.508977-25.086351l790.82945 0c14.063297 0 25.50386 11.253298 25.50386 25.076118L932.61364 223.696014C932.614663 235.99615500000004 922.461419 245.97645999999997 909.935128 245.97645999999997zM779.098267 573.7322260000001l-534.810518 0c-12.524245 0-22.677489-9.975189-22.677489-22.280446 0-12.307304 10.153244-22.285562 22.677489-22.285562l534.810518 0c12.519128 0 22.672372 9.977235 22.672372 22.285562C801.77064 563.75806 791.617395 573.7322260000001 779.098267 573.7322260000001z"  horiz-adv-x="1027" />

    
    <glyph glyph-name="service" unicode="&#58890;" d="M511.68408506 812.284125C275.60500684 812.284125 84.22610732 642.74865879 84.22610732 436.02582891 84.22610732 303.35108348999995 163.06656084 186.81064950999996 281.95191758 120.33618192999995L281.95191758-44.16252655999995 444.98668818 64.36797247000004C466.57023682 61.946751850000055 487.90343604 61.719053619999954 511.68408506 61.719053619999954 747.7631624 61.719053619999954 940.11841777 229.30180722 940.11841777 436.02463711 940.11841777 642.74865879 747.7631624 812.284125 511.68408506 812.284125ZM512.50665518 79.08841729000005C486.47764795 79.08841729000005 462.97119043 79.27081318 438.29405878 83.34552011999995L437.74329482 82.92469716999994 435.72620674 83.17385391000005 301.4647332-8.966025289999948 301.33836758 110.10888251999995C301.38128458 110.08742314999995 301.42419893 110.06477372999996 301.46831036 110.04212168000004L301.46831036 130.42519247999996C182.9703957 193.10033818 103.7436919 306.95966602 103.7436919 437.02483682 103.7436919 634.70653653 286.75263271 794.96006367 512.50665518 794.96006367 738.2594876 794.96006367 921.26842753 634.70653653 921.26842753 437.02483682 921.26842753 239.34194356 738.2594876 79.08841729000005 512.50665518 79.08841729000005ZM529.8176041 247.25293036999994L529.8176041 247.15517578000004C356.49115771 253.30657734 344.40770849 372.53765185 344.40770849 372.53765185L313.66739463 372.53765185C345.87164638 204.19789277999996 530.31352959 215.90820673999997 530.31352959 215.90820673999997L530.31352959 215.99761522999995C540.79236933 215.48142216999997 715.22869151 209.38366728999995 746.46373994 372.65328867000005L715.72342607 372.65328867000005C715.72223428 372.65447959000005 703.61970927 253.19093965000002 529.8176041 247.25293036999994Z"  horiz-adv-x="1024" />

    
    <glyph glyph-name="time" unicode="&#58896;" d="M523.8807775004443-76.14430746548169c-244.72053835851847 0-443.81933841066666 199.0901068231111-443.81933841066666 443.81933841066666 0 244.72053835851847 199.09880126577775 443.81933841066666 443.81933841066666 443.81933841066666 244.72053835851847 0 443.81933841066666-199.09880126577775 443.81933841066666-443.81933841066666C967.700115911111 122.94579935762977 768.6013146453333-76.14430746548169 523.8807775004443-76.14430746548169L523.8807775004443-76.14430746548169zM523.8807775004443 772.9043537919999c-223.44778092088887 0-405.22808009007406-181.78030038281483-405.22808009007406-405.22808009007406 0-223.44778092088887 181.78030038281483-405.22808009007406 405.22808009007406-405.22808009007406 223.44778092088887 0 405.22808009007406 181.78030038281483 405.22808009007406 405.22808009007406C929.1088575905185 591.1240534091853 747.3285584213334 772.9043537919999 523.8807775004443 772.9043537919999L523.8807775004443 772.9043537919999zM523.8807775004443 772.9043537919999M504.58266464711113 329.0837726245925c-10.653145012148146 0-19.293145467259258 8.64000045511111-19.293145467259258 19.298112853333333L485.2895191798518 676.4237242974815c0 10.653145012148146 8.64000045511111 19.293145467259258 19.293145467259258 19.293145467259258 10.65811239822222 0 19.298112853333333-8.64000045511111 19.298112853333333-19.293145467259258L523.8807775004443 348.37691809185185C523.8807775004443 337.7237730797036 515.2407770453333 329.0837726245925 504.58266464711113 329.0837726245925L504.58266464711113 329.0837726245925zM504.58266464711113 329.0837726245925M774.7338895360001 329.0837726245925L504.58266464711113 329.0837726245925c-10.653145012148146 0-19.293145467259258 8.64000045511111-19.293145467259258 19.298112853333333 0 10.653145012148146 8.64000045511111 19.293145467259258 19.293145467259258 19.293145467259258l270.14998334577774 0c10.65811239822222 0 19.298112853333333-8.64000045511111 19.298112853333333-19.293145467259258C794.0320023893332 337.7237730797036 785.3920019342222 329.0837726245925 774.7338895360001 329.0837726245925L774.7338895360001 329.0837726245925zM774.7338895360001 329.0837726245925"  horiz-adv-x="1024" />

    
    <glyph glyph-name="money" unicode="&#59529;" d="M940.287925 328.955336c-9.962909 75.969229-44.159756 146.741086-101.639888 210.352869-9.472745 10.483772-25.651216 11.302417-36.132942 1.829671-10.483772-9.472745-11.302417-25.650193-1.829671-36.132942 50.383504-55.757908 80.284511-117.227911 88.871073-182.703135 11.190877-85.336574-8.999978-157.587108-60.011792-214.745922-66.449411-74.457806-180.997284-115.874077-314.334081-113.623827-0.143263 0.00307-0.286526 0.004093-0.430812 0.004093l-2.161223 0c-0.207731 0-0.412392-0.011256-0.6191-0.016373-0.206708 0.005117-0.411369 0.016373-0.6191 0.016373l-2.161223 0c-0.144286 0-0.287549-0.001023-0.430812-0.004093-3.442402-0.058328-6.870478-0.086981-10.286274-0.086981-128.910998 0-239.314481 41.176818-304.047808 113.710808-51.011814 57.158814-71.202669 129.410372-60.012815 214.745922 24.625864 187.78692 219.953528 291.523563 279.233656 318.844815 8.176217 3.767813 13.769608 11.556197 14.728446 20.507056 0.959861 8.951883-2.856048 17.748223-10.047844 23.163559-0.196475 0.148379-19.869536 15.021112-38.717813 34.31248-24.995277 25.583678-30.082132 40.321334-30.005384 44.197618 1.205455 1.096984 7.122211 5.505387 26.146497 7.844665 51.42523 6.323009 95.985098 9.637498 136.220475 10.135848 40.235376-0.497327 84.794222-3.812839 136.220475-10.135848 19.023262-2.339278 24.940019-6.746658 26.146497-7.844665 0.074701-3.847631-4.948709-18.454304-29.621645-43.804668-18.829857-19.345604-38.911218-34.56319-39.10053-34.70543-7.191796-5.415336-11.007705-14.211676-10.047844-23.163559 0.959861-8.950859 6.55223-16.738219 14.728446-20.507056 23.096021-10.644431 58.734706-28.936029 97.362468-55.626925 4.438079-3.066849 9.504468-4.538363 14.519692-4.538363 8.119935 0 16.104793 3.856841 21.069875 11.042497 8.032954 11.623735 5.120624 27.557636-6.503111 35.589566-25.109887 17.35118-49.060369 31.414477-69.588915 42.366923 4.932336 4.572132 10.101055 9.577123 15.2094 14.870686 34.780131 36.032658 48.317449 66.140373 41.383526 92.042299-2.463098 9.204639-8.878205 22.218024-25.444509 31.94455-11.195993 6.572696-25.545816 10.863419-43.868113 13.115716-53.369511 6.562463-99.813287 10.001795-141.984758 10.516518-0.106424 0.001023-0.211824 0.002047-0.318248 0.002047-0.095167 0-0.189312-0.00614-0.282433-0.007163-0.119727 0-0.23843 0.00614-0.35918 0.005117-42.170448-0.514723-88.614224-3.955078-141.984758-10.516518-18.322297-2.252297-32.67212-6.54302-43.868113-13.116739-16.566304-9.725502-22.981411-22.73991-25.444509-31.94455-6.932899-25.901926 6.603395-56.008618 41.383526-92.042299 5.113461-5.297656 10.282181-10.30367 15.219633-14.879895-37.503149-20.023032-87.481424-50.979068-134.420479-93.601818-80.030731-72.672136-126.694517-155.915026-138.693806-247.415996-13.026688-99.335403 12.066827-187.674357 72.568782-255.466346 74.459852-83.432201 198.75574-130.809231 342.296947-130.807185 3.603061 0 7.229658 0.029676 10.856255 0.090051l1.945305 0c0.207731 0 0.412392 0.011256 0.6191 0.016373 0.206708-0.005117 0.411369-0.016373 0.6191-0.016373l1.947352 0c3.63683-0.060375 7.242961-0.090051 10.855232-0.090051 143.528927 0.004093 267.841188 47.3801 342.295923 130.807185C928.220075 141.27995599999997 953.314613 229.61891000000003 940.287925 328.955336zM639.739824 313.562764c11.30344 0 20.466124 9.162684 20.466124 20.466124s-9.162684 20.466124-20.466124 20.466124l-83.70133 0 81.645508 97.367585c7.263427 8.661264 6.128581 21.570271-2.532683 28.832675-8.661264 7.263427-21.570271 6.129604-28.832675-2.532683l-94.152357-112.281249-94.152357 112.281249c-7.263427 8.661264-20.172435 9.794064-28.832675 2.532683-8.661264-7.262404-9.795087-20.171412-2.532683-28.832675l81.646532-97.366561L383.231753 354.496036c-11.30344 0-20.466124-9.162684-20.466124-20.466124s9.162684-20.466124 20.466124-20.466124l108.469434 0 0-58.328453L383.231753 255.23533399999997c-11.30344 0-20.466124-9.162684-20.466124-20.466124s9.162684-20.466124 20.466124-20.466124l108.469434 0 0-96.531544c0-11.30344 9.162684-20.466124 20.466124-20.466124s20.466124 9.162684 20.466124 20.466124l0 96.531544 107.10639 0c11.30344 0 20.466124 9.162684 20.466124 20.466124s-9.162684 20.466124-20.466124 20.466124L532.633435 255.23533399999997l0 58.328453L639.739824 313.56378800000005z"  horiz-adv-x="1024" />

    
    <glyph glyph-name="mobile_recharge" unicode="&#58898;" d="M765.44 833.5360000000001h-497.152c-54.784 0-99.328-44.544-99.328-99.328V38.39999999999998c0-54.784 44.544-99.328 99.328-99.328h497.152c54.784 0 99.328 44.544 99.328 99.328V734.208c0 54.784-44.544 99.328-99.328 99.328zM517.12-25.600000000000023c-27.648 0-49.664 22.016-49.664 49.664 0 27.648 22.016 49.664 49.664 49.664 27.648 0 49.664-22.016 49.664-49.664 0-27.648-22.528-49.664-49.664-49.664z m299.52 144.384h-599.04V717.312c0 34.816 28.16 63.488 63.488 63.488h472.576c34.816 0 63.488-28.16 63.488-63.488V118.78399999999999zM654.848 642.048h-73.216l-71.68-86.016-71.68 86.016h-73.216L477.184 481.792h-127.488v-53.248h127.488v-53.248h-127.488v-53.248h127.488V215.03999999999996H542.72V321.53599999999994h127.488V374.784H542.72V428.544h127.488V481.792H542.72l112.128 160.256z"  horiz-adv-x="1024" />

    
    <glyph glyph-name="success-fill" unicode="&#59256;" d="M512 834a450 450 0 1 1 0-900A450 450 0 0 1 512 834z m238.725-330.69374999999997l-278.4375-278.4375a28.0125 28.0125 0 0 0-39.824999999999996 0L273.275 384a28.125 28.125 0 0 0 39.76875 39.76875l139.275-139.275 258.58125000000007 258.58125000000007a28.125 28.125 0 0 0 39.824999999999996-39.76875z"  horiz-adv-x="1024" />

    
    <glyph glyph-name="invoice" unicode="&#58895;" d="M857.5 815.9H166.9c-38.2 0-69.2-29.5-69.2-65.8v-657c0-19.7 9.5-38.2 26.1-50.8 1.3-2.1 3.5-4.5 5.8-6.6l70.9-64.1c8.3-7.5 19.2-11.6 30.9-11.6s22.7 4.2 31.1 11.7l61.1 55.2 60.3-54.7c8.3-7.5 19.3-11.6 30.9-11.6 11.6 0 22.7 4.1 31.1 11.7l60.5 54.7 67.4-54.7c8.2-7.1 18.9-11 30.2-11 11.6 0 22.7 4.2 31.1 11.7l60.3 54.5h5.6l60.4-54.6c8.3-7.5 19.3-11.6 30.9-11.6 11.7 0 22.7 4.2 31 11.7l71.5 64.6c0.9 0.9 1.9 1.8 2.7 2.7 18.4 12.1 29.3 31.5 29.3 53v657c-0.1 36.1-31.1 65.6-69.3 65.6z m9.1-737.1l-7-6.3h-0.1l-67.3-60.8-63.5 57.4-16.7 6.5-26.9 0.2-16.8-6.2-64.5-58.1-72.5 58.5-15.7 5.6-19 0.1-16.8-6.2-65-58.5-64.2 58-16.7 6.5-20 0.2-16.8-6.2-65.6-59.1-66.7 60.2-0.1-0.2-7.1 8.1c-5.8 3.8-8.9 8.8-8.9 14.3l2.4 642.6c0 9.5 16.7 26.8 26.7 26.8h668.7c10 0 26.7-17.2 26.7-26.8l2.4-642.6c0.1-5.4-3.3-10.7-9-14zM284.8 575.2h267.5c14.8 0 26.7 12 26.7 26.7 0 14.8-12 26.7-26.7 26.7H284.8c-14.8 0-26.7-12-26.7-26.7 0-14.8 12-26.7 26.7-26.7z m454.8-107H284.8c-14.8 0-26.7-12-26.7-26.8s12-26.7 26.7-26.7h454.7c14.8 0 26.7 12 26.7 26.7s-11.8 26.8-26.6 26.8z m0-160.5H284.8c-14.8 0-26.7-12-26.7-26.8s12-26.7 26.7-26.7h454.7c14.8 0 26.7 12 26.7 26.7s-11.8 26.8-26.6 26.8z"  horiz-adv-x="1024" />

    
    <glyph glyph-name="search" unicode="&#58910;" d="M441.4338965333333 43.13697813333329c-52.99798293333333 0-104.42416746666666 10.3858752-152.8519296 30.868372266666665-46.76100053333333 19.778461866666664-88.7520288 48.08829653333333-124.80515306666666 84.1403296-36.05312426666667 36.05312426666667-64.36186666666667 78.04306133333333-84.14032853333333 124.80515199999999-20.48358826666667 48.426669866666664-30.868372266666665 99.8539456-30.868372266666665 152.8519296s10.3858752 104.42416746666666 30.868372266666665 152.85192853333334c19.778461866666664 46.76100053333333 48.08720533333334 88.7520288 84.14032853333333 124.80515306666666s78.04415253333333 64.36186666666667 124.80515306666666 84.14032853333333c48.42776106666667 20.48358826666667 99.8539456 30.868372266666665 152.8519296 30.868373333333334s104.42416746666666-10.3858752 152.85192853333334-30.868373333333334c46.762091733333335-19.778461866666664 88.7520288-48.08720533333334 124.80515306666666-84.14032853333333 36.052032-36.05312426666667 64.36186666666667-78.04415253333333 84.14032853333333-124.80515306666666 20.48358826666667-48.42776106666667 30.868372266666665-99.8539456 30.868372266666665-152.85192853333334 0-52.996891733333335-10.3858752-104.42416746666666-30.868372266666665-152.8519296-19.778461866666664-46.762091733333335-48.08829653333333-88.7520288-84.14032853333333-124.80515199999999-36.05312426666667-36.052032-78.04306133333333-64.36186666666667-124.80515306666666-84.1403296-48.426669866666664-20.482497066666667-99.8539456-30.868372266666665-152.85192853333334-30.868372266666665z m0 730.754144c-90.30636266666667 0-175.20857706666666-35.167895466666664-239.06506773333334-99.02438506666667s-99.02329386666666-148.7576128-99.02329386666666-239.06397546666668c0-90.30745386666668 35.167895466666664-175.20857706666666 99.02438613333334-239.06506666666667S351.1286250666667 97.71330880000005 441.43498773333334 97.71330880000005c90.30745386666668 0 175.20857706666666 35.167895466666664 239.06506666666667 99.02438613333334S779.5244405333333 345.49530773333333 779.5244405333333 435.8027616c0 90.30636266666667-35.167895466666664 175.20857706666666-99.02438613333334 239.06506666666667s-148.758704 99.02329386666666-239.06615786666669 99.02329386666666zM904.1036469333333-15.999750400000039a27.201934933333334 27.201934933333334 0 0 0-19.296007466666666 7.992157866666666l-97.29213333333334 97.29213333333334c-10.656573866666667 10.657666133333333-10.656573866666667 27.935441066666666 0 38.590922666666664 10.657666133333333 10.657666133333333 27.934348800000002 10.657666133333333 38.590923733333334 0l97.29213333333334-97.29213333333334c10.656573866666667-10.656573866666667 10.656573866666667-27.934348800000002 0-38.590922666666664a27.201934933333334 27.201934933333334 0 0 0-19.294916266666668-7.992157866666666z"  horiz-adv-x="1024" />

    
    <glyph glyph-name="camera" unicode="&#58915;" d="M906.227 45.42700000000002H118.778c-29.659 0-53.69 24.047-53.69 53.688v465.29c0 29.632 24.031 53.678 53.69 53.678h161.07c53.689 0 71.586 107.376 107.379 107.376h232.655c53.218 0 73.561-107.376 125.293-107.376h161.053c29.64 0 53.689-24.047 53.689-53.678v-465.291c-0.001-29.64-24.05-53.687-53.69-53.687zM512.502 564.405c-118.6 0-214.741-96.147-214.741-214.741 0-118.64 96.141-214.794 214.741-214.794 118.617 0 214.759 96.156 214.759 214.794 0 118.595-96.142 214.74-214.759 214.74z m259.5 0c-14.82 0-26.828-12.015-26.828-26.862 0-14.82 12.006-26.826 26.829-26.826 14.819 0 26.861 12.006 26.861 26.826 0 14.848-12.041 26.862-26.861 26.862z m-259.5-375.845c-88.959 0-161.069 72.14-161.069 161.105 0 88.928 72.11 161.054 161.069 161.054 88.94 0 161.069-72.125 161.069-161.054 0-88.964-72.129-161.105-161.069-161.105zM154.571 671.7719999999999c0 9.883 8.022 17.905 17.896 17.905h53.69c9.892 0 17.914-8.022 17.914-17.905v-17.905h-89.5v17.905z"  horiz-adv-x="1024" />

    
    <glyph glyph-name="clock" unicode="&#58945;" d="M512 785.7857141601562c221.78571416015626 0 401.78571416015626-180 401.78571416015626-401.78571416015626S733.7857141601562-17.78571416015643 512-17.78571416015643 110.21428583984374 162.2142858398438 110.21428583984374 384 290.21428583984374 785.7857141601562 512 785.7857141601562M512 834C264.5 834 62 631.5 62 384s202.5-450 450-450 450 202.5 450 450S759.5 834 512 834zM778.7857141601562 303.6428575195313h-289.28571416015626c-12.85714248046875 0-9.642857519531251 32.142857519531255-9.642857519531251 48.214284960937505s-6.428571679687501 0 9.642857519531251 0h289.28571416015626c12.85714248046875 0 25.71428583984375-9.642857519531251 25.71428583984375-25.7142849609375s-12.85714248046875-22.5-25.71428583984375-22.5zM489.5 303.6428575195313c-12.85714248046875 0-25.71428583984375 9.642857519531251-25.71428583984375 25.7142849609375V625.0714283203125c0 12.85714248046875 9.642857519531251 25.71428583984375 25.71428583984375 25.71428583984375s25.71428583984375-9.642857519531251 25.71428583984375-25.71428583984375v-295.71428583984374c0-12.85714248046875-9.642857519531251-25.71428583984375-25.71428583984375-25.7142849609375z"  horiz-adv-x="1024" />

    
    <glyph glyph-name="setting" unicode="&#58892;" d="M968.128 503.616a82.944 82.944 0 0 1-58.944 25.088h-0.064l-5.76-0.192c-14.592 0-49.472 3.456-59.648 35.52-9.408 30.016 11.264 67.136 11.2 67.136a83.84 83.84 0 0 1-23.04 116.032l-107.52 71.68c-37.056 24.832-90.368 15.68-117.824-26.432-0.256-0.576-24.96-58.752-74.816-60.096-53.568 0-75.712 66.624-77.312 70.528C433.344 842.176 380.608 858.24 341.056 836.928l-113.664-61.44c-40.512-21.888-55.68-72.704-31.616-116.544 12.672-15.04 45.44-64.832 29.824-95.424-20.864-40.96-96.768-28.288-108.8-27.2-45.568 0-83.072-37.12-83.648-82.816L32 324.22400000000005c-0.256-22.272 8.256-43.392 23.936-59.328 15.616-15.936 36.48-24.768 58.88-25.024 1.92 0.128 3.648 0.192 5.376 0.768 0.192 0 18.624 5.184 39.04 5.184 24.064 0 39.488-6.72 45.76-20.032 12.032-25.472-21.568-71.936-36.032-88.32A83.84 83.84 0 0 1 192 21.50400000000002l107.584-71.872c37.12-24.704 90.304-15.296 117.504 25.472 0.256 0.768 35.648 69.824 81.344 64.192 51.776-6.592 69.184-68.928 70.976-73.728a83.84 83.84 0 0 1 113.408-33.92l113.6 61.312c40.512 21.888 55.744 72.704 31.424 116.928-1.728 1.984-42.048 48.704-12.928 96.896 22.912 38.144 80.256 26.56 92.16 25.472 45.568 0 83.008 37.12 83.584 82.816l1.28 129.152c0.32 22.4-8.192 43.52-23.808 59.392z m-15.36-188.032c-0.32-24.96-20.736-45.248-42.24-45.696a164.48 164.48 0 0 1-32 3.008c-43.968 0-78.08-16.512-96.064-46.4-35.072-57.984-4.16-118.208 14.464-138.112a45.632 45.632 0 0 0-18.496-61.888l-113.536-61.376c-21.76-11.648-51.072-1.024-60.224 14.4-0.96 3.584-24 87.808-101.312 97.536a85.44 85.44 0 0 1-10.624 0.704c-68.224 0-108.288-82.752-108.544-83.84a47.168 47.168 0 0 0-63.36-12.672l-107.52 71.808c-20.864 13.952-26.432 42.304-14.144 61.184 6.72 7.424 65.216 75.008 40.384 127.744-8.96 19.072-30.208 41.792-80.128 41.792-20.672 0-39.232-4.032-46.4-5.824a45.632 45.632 0 0 0-43.008 45.952l1.216 129.216c0.32 24.96 20.8 45.248 42.816 45.568a230.4 230.4 0 0 1 38.208-3.072c53.312 0 90.432 17.536 107.328 50.752 30.208 59.2-31.936 133.888-32.512 133.888a45.696 45.696 0 0 0 18.368 61.824l113.664 61.376c21.824 11.776 50.88 1.408 60.48-15.232 1.28-3.84 30.592-93.76 115.008-93.76h0.064c72.32 1.92 105.664 80.128 105.344 80.192a46.784 46.784 0 0 0 63.296 12.672l107.456-71.68a46.08 46.08 0 0 0 11.904-64.384c-1.152-2.112-29.824-52.224-15.104-98.688 21.376-68.032 98.496-62.208 101.888-61.888a45.312 45.312 0 0 0 31.552-13.632 45.056 45.056 0 0 0 13.056-32.384l-1.28-129.088zM512 550.0160000000001a166.016 166.016 0 0 1-165.824-165.696A166.016 166.016 0 0 1 512 218.55999999999995a165.888 165.888 0 0 1 165.696 165.76A165.888 165.888 0 0 1 512 550.0160000000001z m0-293.44a127.936 127.936 0 0 0-127.808 127.744C384.192 454.656 441.472 512 512 512c70.4 0 127.68-57.344 127.68-127.68A127.872 127.872 0 0 0 512 256.576z"  horiz-adv-x="1024" />

    
    <glyph glyph-name="comment" unicode="&#59801;" d="M929.966858 674.106284c0 36.94647-28.67304 66.913992-63.980173 66.913992H158.007175c-35.340903 0-63.981197-29.967522-63.981197-66.913992v-490.733651c0-36.935214 28.640294-66.904783 63.981197-66.904782h268.413216l85.576027-89.489151 85.548399 89.489151h268.445961c35.304064 0 63.98222 29.969569 63.98222 66.904782v79.973426h-0.272199c-0.731664 11.633968-9.746992 20.88568-21.055548 20.88568-11.31265 0-20.325931-9.255805-21.053502-20.88568h-0.2722v-57.657164c0-24.65554-19.086707-44.623313-42.653449-44.623313H576.215022l-64.218604-67.14833-64.219627 67.14833H179.314457c-23.554462 0-42.635029 19.968797-42.63503 44.623313V651.793092c0 24.593118 19.080567 44.617174 42.63503 44.617174h665.352667c23.565718 0 42.649356-20.024056 42.649355-44.617174v-211.912387h0.444115c-0.067538-0.747014-0.444115-1.462305-0.444115-2.312672 0-12.311397 9.525957-22.278399 21.329795-22.278399 11.765975 0 21.327748 9.967002 21.327748 22.278399 0 0.850367-0.38988 1.564635-0.440022 2.312672h0.440022V674.106284h-0.007164zM722.517109 374.166027H319.952544c-10.714016 0-19.385513-9.457396-19.385512-21.126156 0-11.633968 8.671497-21.087271 19.385512-21.087271h402.564565c10.68127 0 19.35686 9.453303 19.35686 21.087271-0.00307 11.667737-8.679683 21.126156-19.35686 21.126156z m0 142.623302H319.952544c-10.714016 0-19.385513-9.42465-19.385512-21.125133 0-11.629875 8.671497-21.088294 19.385512-21.088294h402.564565c10.68127 0 19.35686 9.458419 19.35686 21.088294-0.00307 11.700483-8.679683 21.125133-19.35686 21.125133z"  horiz-adv-x="1024" />

    
    <glyph glyph-name="cart" unicode="&#58947;" d="M259.77792763 219.69799776000002c11.57065312-34.31078613 48.26735771-60.70369834 84.41509131-60.70369834h523.02306533l4.91963907 17.10260683 116.19215684 404.38164551c11.57065312 40.30725586-14.97005947 75.88490185-56.5019464 75.88490186h-493.6530331c-12.9853125 0-23.50024893-10.59939316-23.50024893-23.69027813 0-13.06977012 10.51493643-23.69027812 23.50024893-23.69027812h493.6530331c10.24044961 0 14.2310584-5.34192539 11.33839513-15.35011788L826.97217119 189.25113397999996l22.5923335 17.10260685H344.19301894c-16.02577617 0-34.81753008 13.51317128-39.88496953 28.56768837L107.7758668 817.93030576C103.59522969 830.30330273 90.25097363 836.93320283 77.96243339 832.73145088a23.73250693 23.73250693 0 0 1-14.7166875-30.04569141l196.53218174-582.98776171zM414.63042295 28.718883689999984c0 52.32130928-42.10197363 94.73999854-94.04322539 94.73999854s-94.04322539-42.41868838-94.04322451-94.73999854 42.10197363-94.73999854 94.04322451-94.73999765 94.04322539 42.41868838 94.04322539 94.73999765z m-141.04372324 0c0 26.16065508 21.05098682 47.35944229 47.02161269 47.35944229s47.0216127-21.19878721 47.0216127-47.35944229c0-26.16065508-21.05098682-47.35944229-47.0216127-47.3594414s-47.0216127 21.19878721-47.02161269 47.3594414zM908.30457002 28.718883689999984c0 52.32130928-42.10197363 94.73999854-94.04322539 94.73999854s-94.04322539-42.41868838-94.04322539-94.73999854 42.10197363-94.73999854 94.04322539-94.73999765 94.04322539 42.41868838 94.04322539 94.73999765z m-141.04372325 0c0 26.16065508 21.05098682 47.35944229 47.0216127 47.35944229a47.19052705 47.19052705 0 0 0 47.02161182-47.35944229 47.19052705 47.19052705 0 0 0-47.02161182-47.3594414 47.19052705 47.19052705 0 0 0-47.0216127 47.3594414z"  horiz-adv-x="1057" />

    
    <glyph glyph-name="wechat-pay" unicode="&#58893;" d="M405.10919902343755 267.2813220703125c-53.8698744140625-32.53992451171875-61.859855566406246 18.2599576171875-61.859855566406246 18.2599576171875l-67.5098419921875 170.63960185546875c-25.9799396484375 81.08981103515625 22.479947753906252 36.5599142578125 22.479947753906252 36.55991513671876s41.5799033203125-34.0699201171875 73.13982890625-54.8298720703125c31.539926074218748-20.76995126953125 67.48984248046875-6.099985546875 67.48984248046875-6.099986425781251l441.3689701171875 220.66948564453122C798.7782807617186 762.2401672851563 664.2685944335938 834 511.97895019531245 834 263.4495303710937 834 62 643.0204456054688 62 407.4209953125c0-135.5296833984375 66.69984462890625-256.1294021484375 170.60960214843752-334.29922031250004l-18.739956445312497-116.67972744140626s-9.139979003906248-34.05992080078125 22.51994765625-18.2599576171875c21.56994931640625 10.759974609375 76.55982099609376 49.37988515625 109.29974501953126 72.8498302734375A470.41890205078124 470.41890205078124 0 0 1 511.9989497070312-19.168009570312506c248.50942031249997 0 449.9989497070312 190.97955439453125 449.9989505859375 426.5790046875 0 68.2398404296875-16.9799607421875 132.68969033203126-47.049890624999996 189.89955703125-140.629672265625-91.6397859375-467.69890869140625-304.61928925781257-509.8388106445312-330.029230078125z"  horiz-adv-x="1024" />

    
    <glyph glyph-name="card" unicode="&#58906;" d="M874.638884 586.4186050000001h51.009488l6.096372 22.718511a95.255814 95.255814 0 0 1-67.298232 116.688372L496.282791 824.462884a95.232 95.232 0 0 1-116.569303-67.298233l-4.191255-15.669581 434.033116-116.283535c23.337674-6.26307 44.293953-18.098605 61.44-34.363535 1.405023-1.357395 2.619535-2.857674 3.643535-4.429395z m-104.352744 0L291.173209 714.775814a95.255814 95.255814 0 0 1-116.664558-67.393488L158.172279 586.4186050000001h612.113861z m-662.599442-4.405582l20.813395 77.70493a142.883721 142.883721 0 0 0 175.032558 101.090233l25.957209-6.977488 4.21507 15.645767a142.859907 142.859907 0 0 0 174.913489 100.971163l368.163721-98.613581a142.883721 142.883721 0 0 0 100.971162-175.032559l-3.238697-12.073674A143.12186 143.12186 0 0 0 1095.44186 443.392v-428.365395A143.026605 143.026605 0 0 0 952.43907-128H143.002791A143.050419 143.050419 0 0 0 0 15.026605000000018V443.392a143.12186 143.12186 0 0 0 107.686698 138.621023zM47.627907 443.415814v-428.413023A95.422512 95.422512 0 0 1 143.002791-80.37209299999995h809.436279A95.398698 95.398698 0 0 1 1047.813953 15.026605000000018V443.392A95.422512 95.422512 0 0 1 952.43907 538.790698H143.002791A95.398698 95.398698 0 0 1 47.627907 443.392zM166.697674 443.534884c0 13.145302 10.763907 23.813953 23.647256 23.813953h714.752c13.07386 0 23.647256-10.573395 23.647256-23.813953 0-13.145302-10.763907-23.813953-23.647256-23.813954H190.34493A23.67107 23.67107 0 0 0 166.697674 443.534884z m547.720931-476.27907a23.813953 23.813953 0 1 0 0 47.627907 23.813953 23.813953 0 0 0 0-47.627907z m95.255814 0a23.813953 23.813953 0 1 0 0 47.627907 23.813953 23.813953 0 0 0 0-47.627907z m95.255814 0a23.813953 23.813953 0 1 0 0 47.627907 23.813953 23.813953 0 0 0 0-47.627907z"  horiz-adv-x="1095" />

    
    <glyph glyph-name="subtract" unicode="&#58970;" d="M512 832C264.6 832 64 631.4 64 384s200.6-448 448-448 448 200.6 448 448S759.4 832 512 832z m0-836c-214.3 0-388 173.7-388 388s173.7 388 388 388 388-173.7 388-388-173.7-388-388-388zM695.5 354h-367c-16.6 0-30 13.4-30 30s13.4 30 30 30h367c16.6 0 30-13.4 30-30s-13.4-30-30-30z"  horiz-adv-x="1024" />

    
    <glyph glyph-name="add" unicode="&#58971;" d="M512 831.9c247.4 0 448-200.6 448-448s-200.6-448-448-448C264.6-64 64 136.60000000000002 64 384 64 631.4 264.6 831.9 512 831.9zM695.3 414.5H542.6V567.2c0 16.9-13.7 30.5-30.5 30.5-16.9 0-30.5-13.7-30.5-30.5v-152.7H328.7c-16.9 0-30.5-13.7-30.5-30.5 0-16.9 13.7-30.5 30.5-30.5h152.7v-152.7c0-16.9 13.7-30.5 30.5-30.5 16.9 0 30.5 13.7 30.5 30.5V353.4h152.7c16.9 0 30.5 13.7 30.5 30.5 0.2 16.9-13.5 30.6-30.3 30.6z"  horiz-adv-x="1024" />

    
    <glyph glyph-name="shopping-card" unicode="&#58972;" d="M790.4 121.60000000000002H420.1c-97.6 0-169.7 87.3-169.7 185.1V661.6c0 47.2-30.2 74-77.1 77.1-35 2.3-68-13.2-84.2-41.1-2.3-4-6.3-6.6-10.9-6.6h-0.6c-9.5 0-17 8.6-12.2 16.9 20.9 36.5 62.3 65 108 61.7 60-4.4 108-47.7 108-108v-354.8c0-65.5 55.2-154.3 138.8-154.3h370.3c74.2 0 137.9 66.2 138.8 138.8V522.7c0 83.9-55.2 154.3-138.8 154.3H451c-7 0-15.4 8.4-15.4 15.4s8.5 15.4 15.4 15.4h339.4c97.6 0 169.7-87.3 169.7-185.1v-231.4c0-97.9-72.2-169.7-169.7-169.7zM420.1 476.4h370.3c8.5 0 15.4 6.9 15.4 15.4s-6.9 15.4-15.4 15.4H420.1c-8.5 0-15.4-6.9-15.4-15.4s6.9-15.4 15.4-15.4z m370.3-108H420.1c-8.5 0-15.4-6.9-15.4-15.4s6.9-15.4 15.4-15.4h370.3c8.5 0 15.4 6.9 15.4 15.4s-6.9 15.4-15.4 15.4zM312.1 90.70000000000005c-25.6 0-46.3-20.7-46.3-46.3 0-25.6 20.7-46.3 46.3-46.3 25.6 0 46.3 20.7 46.3 46.3 0 25.6-20.7 46.3-46.3 46.3z m570.8 0c-25.6 0-46.3-20.7-46.3-46.3 0-25.6 20.7-46.3 46.3-46.3 25.6 0 46.3 20.7 46.3 46.3 0 25.6-20.7 46.3-46.3 46.3z"  horiz-adv-x="1024" />

    
    <glyph glyph-name="right" unicode="&#58973;" d="M734 384.2l-44.8 44.7L286.3 831.8l-44.8-44.7 402.9-402.9-402.9-402.9 44.8-44.8 402.9 402.9z"  horiz-adv-x="1024" />

    
    <glyph glyph-name="sound" unicode="&#58974;" d="M482.2 668.7v-568.4L273.1 263.6H123.8V502.5h149.4l209 166.2m29.8 72.7c-8.2 0-29.1-0.4-36.7-5.6l-232-173.5H93.9c-23.4 0-29.9-34.9-29.9-57.9v-269.5c0-23 6.5-31 29.9-31h149.3l232-170.6c7.6-5.2 28.6-8.6 36.7-8.6 22 0 29.9 18.2 29.9 42.8V701.6c0 24.6-20.5 41.7-42.5 41.7l12.7-1.9zM601.6 207.79999999999995v60.9c51.4 13.3 89.6 59.6 89.6 115.2S653 485.8 601.6 499.1V560C686.3 545.9 751 472.7 751 384s-64.7-161.9-149.4-176.2zM930.2 412.9h-89.6c-16.5 0-29.9-13.4-29.9-29.9s13.4-29.9 29.9-29.9h89.6c16.5 0 29.9 13.4 29.9 29.9-0.1 16.5-13.5 29.9-29.9 29.9zM741.9 552.7c11.7-11.7 30.6-11.7 42.2 0l63.4 63.4c11.7 11.7 11.7 30.6 0 42.2-11.7 11.7-30.6 11.7-42.2 0l-63.4-63.4c-11.6-11.7-11.6-30.6 0-42.2z m40.5-338.6c-11.7 11.7-30.6 11.7-42.2 0-11.7-11.7-11.7-30.6 0-42.2l63.4-63.4c11.7-11.7 30.6-11.7 42.2 0 11.7 11.7 11.7 30.6 0 42.2l-63.4 63.4z"  horiz-adv-x="1024" />

    
    <glyph glyph-name="hourglass" unicode="&#58975;" d="M857.9-20.899999999999977h-90.4V142.70000000000005c0 106-63.8 197-155.1 236.9 91.3 39.9 155.1 130.9 155.1 236.9V788.7h90.4c11.9 0 21.5 9.6 21.5 21.5s-9.6 21.5-21.5 21.5H160.3c-11.9 0-21.5-9.6-21.5-21.5s9.6-21.5 21.5-21.5h90.4v-172.3c0-106 63.8-197 155.1-236.9-91.3-39.9-155.1-130.9-155.1-236.9V-21h-90.4c-11.9 0-21.5-9.6-21.5-21.5s9.6-21.5 21.5-21.5H857.9c11.9 0 21.5 9.6 21.5 21.5 0.1 11.9-9.6 21.6-21.5 21.6zM293.8 142.70000000000005c0 85.6 50.7 163.1 129.3 197.4l60.8 26.5h-0.6v25.8h0.6L423 419c-78.5 34.3-129.3 111.8-129.3 197.4V788.7h430.6v-172.3c0-85.6-50.7-163.1-129.3-197.4l-60.8-26.5h0.6v-25.8h-0.6l60.8-26.5c78.5-34.3 129.3-111.8 129.3-197.4v-163.6H293.8V142.70000000000005zM360.3 564.8c18.7-64.6 78.3-112 148.8-112s130.1 47.4 148.8 112h26.7C665.3 485.7 594.1 427 509.1 427S353 485.7 333.6 564.8h26.7zM500.5 435.6h17.2v-447.9h-17.2V435.6zM337.8-29.5c43.7 21.3 104.3 34.5 171.3 34.5s127.6-13.2 171.3-34.5H337.8z"  horiz-adv-x="1024" />

    
    <glyph glyph-name="star-f" unicode="&#58977;" d="M545.8 809.3l107.4-229c5.7-12.1 16.6-20.4 29.2-22.4l240.1-36.7c31.8-4.9 44.6-46.1 21.5-69.7L770.3 273.20000000000005c-9.2-9.4-13.3-22.9-11.2-36.2l41-251.7c5.4-33.4-27.9-58.8-56.3-43.1L529 61.10000000000002c-11.3 6.3-24.8 6.3-36.1 0L278.1-57.799999999999955c-28.5-15.8-61.8 9.7-56.3 43.1l41 251.7c2.2 13.3-2 26.8-11.2 36.2L77.9 451.5c-23 23.6-10.3 64.8 21.5 69.7l240.1 36.7c12.6 1.9 23.6 10.3 29.2 22.4l107.4 229c14.3 30.4 55.5 30.4 69.7 0z"  horiz-adv-x="1024" />

    
    <glyph glyph-name="success" unicode="&#58978;" d="M511.9 832c-247.4 0-448-200.6-448-448s200.6-448 448-448 448 200.6 448 448c0 247.5-200.6 448-448 448z m0-870.7c-233.5 0-422.8 189.3-422.8 422.8S278.4 806.9 511.9 806.9s422.8-189.3 422.8-422.8-189.3-422.8-422.8-422.8zM700.6 530L451.4 280.9 323.3 409l-21.4-21.4 128.2-128.1 21.3-21.3 270.5 270.5z"  horiz-adv-x="1024" />

    
    <glyph glyph-name="empty" unicode="&#58979;" d="M511.9 799.1c228.9 0 415.2-186.2 415.2-415.2S740.9-31.200000000000045 511.9-31.200000000000045 96.8 155 96.8 383.9 283 799.1 511.9 799.1m0 32.8C264.5 831.9 64 631.3 64 383.9S264.5-64 511.9-64s447.9 200.5 447.9 447.9-200.5 448-447.9 448zM632.1 176.79999999999995L572 253.20000000000005l-65.6-76.5-65.6 76.5-60.1-76.5-24.6 30.3-19.7-19.7 44.4-54.2 60.1 76.5 65.6-76.5 65.6 76.5 60.1-76.5 52.2 57.4-20.8 20.8-31.5-34.5z m157.6 391.1l-23.2 23.2-57.9-57.9-57.9 57.9-23.2-23.2 57.9-57.9-57.9-58 23.2-23.2 57.9 57.9 57.9-57.9 23.2 23.2-57.9 58 57.9 57.9zM396.4 452l-57.9 58 57.9 57.9-23.2 23.2-57.9-57.9-57.9 57.9-23.2-23.2 57.9-57.9-57.9-58 23.2-23.2 57.9 57.9 57.9-57.9 23.2 23.2z"  horiz-adv-x="1024" />

    
    <glyph glyph-name="pay-failure" unicode="&#58982;" d="M512.3-63.5C265-63.5 64.5 137 64.5 384.2 64.5 631.5 265 832 512.3 832S960 631.5 960 384.2c0-247.2-200.5-447.7-447.7-447.7zM670.6 506c10.1 10.1 10.1 26.4 0 36.5-10.1 10.1-26.4 10.1-36.5 0L512.3 420.8 390.5 542.6c-10.1 10.1-26.4 10.1-36.5 0-10.1-10.1-10.1-26.4 0-36.5l121.8-121.8-121.9-121.8c-10.1-10.1-10.1-26.4 0-36.5 10.1-10.1 26.4-10.1 36.5 0l121.8 121.8L634 225.89999999999998c10.1-10.1 26.4-10.1 36.5 0 10.1 10.1 10.1 26.4 0 36.5L548.8 384.3 670.6 506z"  horiz-adv-x="1024" />

    
    <glyph glyph-name="order-finish" unicode="&#58983;" d="M727.5 378.9c-8.7 8.7-22.9 8.7-31.7 0L445.5 128.60000000000002 328.3 245.79999999999995c-8.7 8.7-22.9 8.7-31.7 0-8.7-8.7-8.7-22.9 0-31.7L429.7 81c8.7-8.7 22.9-8.7 31.7 0l266.1 266.1c8.7 8.8 8.7 23 0 31.8zM852.5 831.6h-681C112.1 831.6 64 783.5 64 724.1v-681c0-59.4 48.1-107.5 107.5-107.5h681c59.4 0 107.5 48.1 107.5 107.5V724c0.1 59.4-48.1 107.6-107.5 107.6z m63.6-772c0-44.2-35.8-80-80-80h-648c-44.2 0-80 35.8-80 80V527.3h808v-467.7z m-808 511.7V707.6c0 44.2 35.8 80 80 80h648c44.2 0 80-35.8 80-80v-136.2h-808z"  horiz-adv-x="1024" />

    
    <glyph glyph-name="remove" unicode="&#58984;" d="M677 407.6H346.9c-13 0-23.6-10.6-23.6-23.6 0-13 10.6-23.6 23.6-23.6H677c13 0 23.6 10.6 23.6 23.6 0 13-10.5 23.6-23.6 23.6zM512 832C264.6 832 64 631.4 64 384s200.6-448 448-448 448 200.6 448 448S759.4 832 512 832z m0-848.8C291-16.799999999999955 111.2 163 111.2 384S291 784.8 512 784.8 912.8 605 912.8 384 733-16.799999999999955 512-16.799999999999955z"  horiz-adv-x="1024" />

    
    <glyph glyph-name="edit" unicode="&#58985;" d="M335.5 217.70000000000005c-0.8-7.3 5.3-13.4 12.6-12.6l138.2 15.2 439.3 445.9c37.3 37.9 37.3 99.3 0 137.2-18.7 18.9-43.1 28.4-67.6 28.4-24.5 0-48.9-9.5-67.6-28.4L351.2 357.5l-15.7-139.8z m488.8 551.4c9 9.2 21 14.2 33.8 14.2 12.8 0 24.8-5 33.8-14.2 18.6-18.9 18.6-49.7 0-68.6l-36.8-37.4-68.1 68.2 37.3 37.8z m-71.2-72.3l68.1-68.1-317.4-322.1-68.1 68.1 317.4 322.1zM389.8 272.5l7 62.7 5 5 68.1-68.1-5.4-5.5-62.1-6.8c-7.3-0.7-13.4 5.4-12.6 12.7z m381.7-20.8c0 13.4-10.8 24.2-24.2 24.2h-96.7c-13.4 0-24.2-10.8-24.2-24.2 0-13.4 10.8-24.2 24.2-24.2h96.7c13.4 0.1 24.2 10.9 24.2 24.2zM263.9 130.89999999999998c-13.3 0-24.2-10.8-24.2-24.2 0-13.3 10.8-24.2 24.2-24.2h483.4c13.3 0 24.2 10.8 24.2 24.2 0 13.3-10.8 24.2-24.2 24.2H263.9z m652.6 290c-13.3 0-24.2-10.8-24.2-24.2v-356.5c0-30.1-24.4-54.4-54.4-54.4H173.3c-30.1 0-54.4 24.4-54.4 54.4V704.9c0 30.1 24.4 54.4 54.4 54.4h356.5c13.4 0 24.2 10.8 24.2 24.2 0 13.4-10.8 24.2-24.2 24.2H173.3c-56.8 0-102.8-46-102.8-102.8v-664.6c0-56.8 46-102.8 102.8-102.8h664.6c56.8 0 102.8 46 102.8 102.8V396.8c0 13.3-10.8 24.1-24.2 24.1z"  horiz-adv-x="1024" />

    
    <glyph glyph-name="close-line" unicode="&#58986;" d="M959.6 772.7l-59.7 59.7-388.1-388-388 388-59.7-59.7 388-388-388-388.1 59.7-59.7 388 388.1 388.1-388.1 59.7 59.7-388.1 388.1z"  horiz-adv-x="1024" />

    
    <glyph glyph-name="home" unicode="&#58999;" d="M511.7 734.1c2.4 0 7-0.6 11-4.6l389.8-368.4H782v-261c0-41.3-23.9-74-65-74l-102.8-0.6V156c0 51.6-40.6 93.2-74.6 93.2h-37.3c-62.5 0.6-93.2-41.6-93.2-93.2v-130.5l-102.7 0.6c-41.2 0-65 32.7-65 74v261H110.9l389.8 368.4c3.9 4 8.6 4.6 11 4.6m0 37.4c-13.5 0-27.1-5.2-37.4-15.5L71.6 370.9c-16.7-16.7-4.9-45.3 18.7-45.3l113.7-1.8v-223.7c0-62 40.5-111.4 102.3-111.4l140-0.4V156c1.6 36.8 21.9 56.7 37.3 55.9l46.6 1.3c30.9 0 46.6-26.3 46.6-57.3v-167.8l140 0.4c61.8 0 102.3 49.4 102.3 111.4V323.79999999999995l113.8 1.8c23.6 0 35.4 28.6 18.7 45.3L549.1 756a52.866 52.866 0 0 1-37.4 15.5z"  horiz-adv-x="1024" />

    
    <glyph glyph-name="home-fill" unicode="&#59000;" d="M819.1 325.4v-223.8c0-61.7-59.2-111.8-121-111.8l-121.4-0.1V157.5c0 30.8-25 56-56 56H502c-29 0-55.7-18.8-56-56v-167.9l-121.5 0.1c-61.9 0-121 50.2-121 111.8V325.4H91.7c-23.6 0-37.3 46.3-20.6 63L474 752.7c20.7 20.6 54.2 20.6 74.9 0l402.9-382.9c16.7-16.6 3-44.3-20.6-44.3H819.1z"  horiz-adv-x="1024" />

    
    <glyph glyph-name="user-fill" unicode="&#59001;" d="M960-17.600000000000023H64c16.8 195.2 158.3 354.4 344.4 398.3-66.5 36.6-111.6 107.3-111.6 188.6 0 118.9 96.4 215.2 215.2 215.2 118.9 0 215.2-96.3 215.2-215.2 0-81.3-45.1-152-111.6-188.6 186.1-44 327.6-203.1 344.4-398.3z"  horiz-adv-x="1024" />

    
    <glyph glyph-name="message-fill" unicode="&#59004;" d="M510.1-64C263.2-64 63 136.10000000000002 63 383S263.2 830 510 830c246.9 0 447-200.1 447-447v-447H510.1zM375.9 494.8H320c-18.5 0-33.5-15-33.5-33.5s15-33.5 33.5-33.5h55.9v67z m324.2 0H420.7v-67.1h279.4c18.5 0 33.5 15 33.5 33.5 0 18.6-15 33.6-33.5 33.6z m0-178.8h-380c-18.5 0-33.5-15-33.5-33.5s15-33.5 33.5-33.5h380c18.5 0 33.5 15 33.5 33.5s-15 33.5-33.5 33.5z"  horiz-adv-x="1024" />

    
    <glyph glyph-name="message" unicode="&#59008;" d="M702.2 317.6H320.6c-18.6 0-33.7-15.1-33.7-33.7s15.1-33.7 33.7-33.7h381.6c18.6 0 33.7 15.1 33.7 33.7s-15.1 33.7-33.7 33.7z m0 179.6H421.6v-67.3h280.6c18.6 0 33.7 15.1 33.7 33.7 0 18.5-15.1 33.6-33.7 33.6z m-381.6-67.4h56.1v67.3h-56.1c-18.6 0-33.7-15.1-33.7-33.7 0-18.5 15.1-33.6 33.7-33.6zM511.4 833.9c-247.9 0-449-201-449-448.9 0-248 201-449 449-449h449V385c-0.1 247.9-201.1 448.9-449 448.9z m404.1-853H511.4c-222.8 0-404.1 181.3-404.1 404.1s181.3 404.1 404.1 404.1S915.5 607.8 915.5 385v-404.1z"  horiz-adv-x="1024" />

    
    <glyph glyph-name="user" unicode="&#59009;" d="M958-13.600000000000023h-39C899.3 194 724.1 356.9 511.4 356.9c-212.7 0-387.8-163-407.6-370.5h-39C81.6 181 222.6 339.6 408.1 383.5c-66.3 36.5-111.2 107-111.2 188 0 118.5 96 214.5 214.5 214.5s214.5-96 214.5-214.5c0-81-44.9-151.5-111.2-188C800.2 339.6 941.2 181 958-13.600000000000023zM686.9 571.5c0 96.8-78.7 175.5-175.5 175.5s-175.5-78.7-175.5-175.5S414.6 396 511.4 396c96.8-0.1 175.5 78.7 175.5 175.5z"  horiz-adv-x="1024" />

    
    <glyph glyph-name="category" unicode="&#58882;" d="M372.1694917 834h-203.38983105C107.76271221 834 62 788.23728779 62 732.30508448v-203.38983018c0-55.93220332 45.76271221-101.69491552 101.69491552-101.69491553h203.38983018c55.93220332 0 101.69491552 45.76271221 101.69491553 101.69491553V732.30508448c5.08474599 55.93220332-40.67796622 101.69491552-96.61016953 101.69491552z m40.67796621-299.99999971c0-30.50847422-25.4237291-50.84745732-50.8474582-50.8474582H178.94915263c-30.50847422 0-50.84745732 25.4237291-50.84745732 50.8474582V722.13559336c0 30.50847422 25.4237291 50.84745732 50.84745732 50.84745732h183.05084708c30.50847422 0 50.84745732-25.4237291 50.8474582-50.84745732v-188.13559307zM855.22033935 834h-203.38983105c-55.93220332 0-101.69491552-45.76271221-101.69491465-101.69491552v-203.38983018c0-55.93220332 45.76271221-101.69491552 101.69491465-101.69491553h203.38983105c55.93220332 0 101.69491552 45.76271221 101.69491466 101.69491553V732.30508448c5.08474599 55.93220332-45.76271221 101.69491552-101.69491466 101.69491552z m45.76271133-299.99999971c0-30.50847422-25.4237291-50.84745732-50.84745732-50.8474582h-183.05084795c-30.50847422 0-50.84745732 25.4237291-50.84745733 50.8474582V722.13559336c0 30.50847422 25.4237291 50.84745732 50.84745733 50.84745732h183.05084795c30.50847422 0 50.84745732-25.4237291 50.84745732-50.84745732v-188.13559307zM372.1694917 345.86440634999997h-203.38983105c-55.93220332 0-101.69491552-45.76271221-101.69491466-101.69491465v-203.38983105c0-55.93220332 45.76271221-101.69491552 101.69491466-101.69491466h203.38983105c55.93220332 0 101.69491552 45.76271221 101.69491465 101.69491466v203.38983105c0 55.93220332-45.76271221 101.69491552-101.69491465 101.69491465z m40.67796621-299.99999971c0-30.50847422-25.4237291-50.84745732-50.8474582-50.84745732H178.94915263c-30.50847422 0-50.84745732 25.4237291-50.84745732 50.84745732v183.05084795c0 30.50847422 25.4237291 50.84745732 50.84745732 50.84745733h183.05084708c30.50847422 0 50.84745732-25.4237291 50.8474582-50.84745733v-183.05084795zM855.22033935 345.86440634999997h-203.38983105c-55.93220332 0-101.69491552-45.76271221-101.69491465-101.69491465v-203.38983105c0-55.93220332 45.76271221-101.69491552 101.69491465-101.69491466h203.38983105c55.93220332 0 101.69491552 45.76271221 101.69491466 101.69491466v203.38983105c5.08474599 55.93220332-45.76271221 101.69491552-101.69491466 101.69491465z m45.76271133-299.99999971c0-30.50847422-25.4237291-50.84745732-50.84745732-50.84745732h-183.05084795c-30.50847422 0-50.84745732 25.4237291-50.84745733 50.84745732v183.05084795c0 30.50847422 25.4237291 50.84745732 50.84745733 50.84745733h183.05084795c30.50847422 0 50.84745732-25.4237291 50.84745732-50.84745733v-183.05084795z"  horiz-adv-x="1024" />

    
    <glyph glyph-name="coupon" unicode="&#58881;" d="M762.525823 828.522166L260.514315 828.522166c-37.995359 0-68.796876-30.801517-68.796876-68.796876l0-762.03566c35.501562-0.222057 64.214511-29.061896 64.214511-64.615647l31.442106 0c0 17.678638 14.331403 32.010041 32.010041 32.010041 17.678638 0 32.010041-14.331403 32.010041-32.010041l32.04688 0c0 17.678638 14.331403 32.010041 32.010041 32.010041 17.678638 0 32.010041-14.331403 32.010041-32.010041l32.04688 0c0 17.678638 14.331403 32.010041 32.010041 32.010041 17.678638 0 32.010041-14.331403 32.010041-32.010041l32.04688 0c0 17.678638 14.331403 32.010041 32.010041 32.010041 17.678638 0 32.010041-14.331403 32.010041-32.010041l31.658024 0c0 17.678638 14.331403 32.010041 32.010041 32.010041 17.678638 0 32.010041-14.331403 32.010041-32.010041l32.084743 0c0 35.32453 28.636201 63.960731 63.960731 63.960731l0 762.690576C831.322699 797.720649 800.521183 828.522166 762.525823 828.522166zM698.340989 400.822131c0-3.000334-2.432399-5.433756-5.433756-5.433756L558.684252 395.388375c-3.000334 0-5.433756-2.432399-5.433756-5.432733l0-68.548212c0-3.000334 2.432399-5.433756 5.433756-5.433756l132.809795 0c2.990101 0 5.418406-2.416026 5.432733-5.40715l0.306992-63.232137c0.014326-3.016707-2.430352-5.467525-5.447059-5.459339l-133.090181 0.332575c-3.006474 0.007163-5.447059-2.427282-5.447059-5.432733l0-102.352109c0-3.018753-2.461051-5.458315-5.478781-5.432733l-74.034157 0.627287c-2.982938 0.025583-5.387707 2.450818-5.387707 5.432733l0 101.738126c0 3.000334-2.432399 5.432733-5.432733 5.432733L330.131883 242.22092599999996c-3.000334 0-5.432733 2.432399-5.432733 5.433756l0 62.885236c0 3.000334 2.432399 5.432733 5.432733 5.432733L462.917118 315.97265100000004c3.000334 0 5.432733 2.432399 5.432733 5.433756l0 68.548212c0 3.000334-2.432399 5.432733-5.432733 5.432733L330.131883 395.387351c-3.000334 0-5.432733 2.432399-5.432733 5.433756l0 62.901609c0 2.994194 2.422166 5.424546 5.41636 5.432733l102.33062 0.311085c4.420683 0.013303 6.975878 5.019317 4.393054 8.607028L332.609307 622.865249c-2.586918 3.593851-0.01842 8.607028 4.409426 8.607028l83.408665 0c1.76111 0 3.413749-0.853437 4.431939-2.291183l85.980233-121.274064c2.172479-3.063779 6.723122-3.052522 8.880251 0.021489l85.851297 122.361839c1.017166 1.450025 2.676969 2.312672 4.447289 2.312672l74.264401 0c4.412496 0 6.985088-4.982478 4.429893-8.579399l-103.691617-145.975653c-2.551102-3.591805 0.008186-8.566096 4.41352-8.579399l103.490026-0.312108c2.994194-0.00921 5.417383-2.438539 5.417383-5.432733L698.342012 400.822131z"  horiz-adv-x="1024" />

    
    <glyph glyph-name="order" unicode="&#58880;" d="M251.76113265-66.46292570000003a125.27159459 125.27159459 0 0 0-125.09998965 125.09998966V709.36293604A125.27159459 125.27159459 0 0 0 251.76113265 834.4629257h520.56353716a125.27159459 125.27159459 0 0 0 125.09998966-125.09998966v-650.64006963a125.27159459 125.27159459 0 0 0-125.09998966-125.09998964z m0 845.84067077a70.18641395 70.18641395 0 0 1-70.1006115-70.10061148v-650.64006963a70.18641395 70.18641395 0 0 1 70.1006115-70.10061148h520.56353716a70.18641395 70.18641395 0 0 1 70.1006115 70.10061148V709.36293604a70.18641395 70.18641395 0 0 1-70.1006115 70.10061148zM306.07409111 356.45740969999997a27.5425903 27.5425903 0 1 0 0 54.99937814h411.85181778a27.5425903 27.5425903 0 1 0 0-54.99937814zM306.07409111 226.38087725000003a27.5425903 27.5425903 0 1 0 0 54.65616831h281.00306317a27.5425903 27.5425903 0 1 0 0-55.08518063zM306.07409111 486.96295444a27.5425903 27.5425903 0 1 0 0 55.08518063h411.85181778a27.5425903 27.5425903 0 1 0 0-55.08518063z"  horiz-adv-x="1024" />

    


  </font>
</defs>
</svg>
