<?xml version="1.0" encoding="utf-8"?>
<!-- Generator: Adobe Illustrator 19.0.0, SVG Export Plug-In . SVG Version: 6.00 Build 0)  -->
<svg version="1.1" id="图层_1" xmlns="http://www.w3.org/2000/svg" xmlns:xlink="http://www.w3.org/1999/xlink" x="0px" y="0px"
	 viewBox="-19 21 339 72" style="enable-background:new -19 21 339 72;" xml:space="preserve">
<style type="text/css">
	.st0{fill:#E53E40;}
	.st1{fill:#666666;}
</style>
<g>
	<polygon class="st0" points="-19,61 13,61 13,21 -19,21 -19,61 	"/>
	<polygon class="st1" points="-19,93 13,93 13,69 -19,69 -19,93 	"/>
	<polygon class="st0" points="21,93 53,93 53,53 21,53 21,93 	"/>
	<polygon class="st1" points="21,21 21,45 53,45 53,21 21,21 	"/>
</g>
<g>
	<path class="st0" d="M116.6,67.1l6.5,20.5h-11.9l-0.8-2.5H67.3l12.5-27H67.3v-5.5h57v5.5H93.1l-9.9,21.5h25.4l-3.9-12.5H116.6z
		 M69,29.5h52.8v5.6H69V29.5z"/>
	<path class="st0" d="M132.6,50.6c0.1-1.6-0.6-2.4-2.3-2.3h-0.9v-5.5h8.8c2.6,0,4.3,0.4,5.2,1.2c0.9,0.9,1.3,2.6,1.2,5.2v33.1h2.5
		v5.5h-14.5V50.6z M133,39.5h11.6V29H133V39.5z M151.5,28.9H179c2.7,0,4.5,0.4,5.5,1.5c1,1,1.5,2.9,1.5,5.5v7.5h3v5.5h-14.9v-12
		c0.2-1.8-0.7-2.7-2.5-2.5h-9.1l-3,15.9h-12.4L151.5,28.9z M148.8,57v-5.5h32.4c2.7,0,4.5,0.4,5.5,1.5c1,1,1.5,2.9,1.5,5.5v4.9
		l-11,10.9l12.5,13.9h-14.9l-5.5-6.1l-6.3,6.1h-15l14-14.3l-12.6-14h14.9l5.5,6.1l6.5-6.6v-0.6c0.1-1.3-0.5-1.8-1.8-1.8H148.8z"/>
	<path class="st0" d="M193.9,84.5l0.9-39.4h6.8l-0.9,39.4H193.9z M211.6,41.1v47H202v-47h-7.3v-5.6h7.3v-7.8h9.6v7.8h4.6v5.6H211.6z
		 M216.8,46.1v24.3h-4.1V46.1H216.8z M229.1,67h12.3v2.5h11.3V75h-10v0.3l10.9,12.9h-13.6l-4.9-5l-5.4,5H215l12.9-12.9V75H217v-5.5
		h12.1V67z M233.3,39.6h-11.1v-3.4h-4.8v-5.5h4.8v-3h11.1v3h4.3v-3h10.9v3h4.3v5.5h-4.3v3.4h-10.9v-3.4h-4.3V39.6z M217.9,40.9h27
		c2.7,0,4.5,0.4,5.5,1.5c1,1,1.5,2.9,1.5,5.5v17.9h-34V40.9z M229.3,50.5h11.3v-1.6c0.2-1.8-0.7-2.7-2.5-2.5h-8.8V50.5z M240.5,55.9
		h-11.3v4.4h11.3V55.9z"/>
	<path class="st0" d="M259.6,45.1h6.9l-1.1,38.6h-6.9L259.6,45.1z M277,28.3v6.9h6v5.5h-6V87h-9.8V40.6h-8.5v-5.5h8.5v-6.9H277z
		 M282.6,45.3v24.9H278V45.3H282.6z M295.1,35.6v8.5h13.1c2.7,0,4.5,0.4,5.5,1.5c1,1,1.5,2.9,1.5,5.5v5.6l-5.6,12.6l7.5,17.8h-10
		l-2.3-6.3l-2.1,6.3h-10.6l6.3-17.8l-3.3-8.6v12l-4.5,14.6h-11.3l5-16.8V30l31.1-1.1v6L295.1,35.6z M295.1,49.6v5.9h7.8l1.1,3.3
		l1.5-4v-2.6c0.2-1.8-0.7-2.7-2.5-2.5H295.1z"/>
</g>
</svg>
